{"title":"The.Bucket.List.2007.720p.BRRip.XviD.AC3 - CODY","uid":6266437,"size":2214158855,"categoryP":"video","categoryS":"hd___movies","magnet":"?xt=urn:btih:b9c9484aef94f5490ec13eab476e19b6ae873c8d&amp;dn=The.Bucket.List.2007.720p.BRRip.XviD.AC3+-+CODY&amp;tr=udp%3A%2F%2Ftracker.openbittorrent.com%3A80&amp;tr=udp%3A%2F%2Fopen.demonii.com%3A1337&amp;tr=udp%3A%2F%2Ftracker.coppersurfer.tk%3A6969&amp;tr=udp%3A%2F%2Fexodus.desync.com%3A6969","seeders":1,"leechers":0,"uploader":"CODYBOSS1969","files":5,"time":1300923560,"description":"General\nComplete name                    : The.Bucket.List.2007.720p.BRRip.XviD.AC3 - CODY.avi\nFormat                           : AVI\nFormat/Info                      : Audio Video Interleave\nFormat profile                   : OpenDML\nFile size                        : 2.07 GiB\nDuration                         : 1h 37mn\nOverall bit rate                 : 3 050 Kbps\nWriting application              : VirtualDubMod 1.5.10.2 (build 2540/release)\nWriting library                  : VirtualDubMod build 2540/release\n\nVideo\nID                               : 0\nFormat                           : MPEG-4 Visual\nFormat profile                   : Advanced Simple@L5\nFormat settings, BVOP            : Yes\nFormat settings, QPel            : No\nFormat settings, GMC             : No warppoints\nFormat settings, Matrix          : Default (H.263)\nCodec ID                         : XVID\nCodec ID/Hint                    : XviD\nDuration                         : 1h 37mn\nBit rate                         : 2 589 Kbps\nWidth                            : 1 280 pixels\nHeight                           : 720 pixels\nDisplay aspect ratio             : 16:9\nFrame rate                       : 23.976 fps\nColor space                      : YUV\nChroma subsampling               : 4:2:0\nBit depth                        : 8 bits\nScan type                        : Progressive\nCompression mode                 : Lossy\nBits/(Pixel*Frame)               : 0.117\nStream size                      : 1.76 GiB (85%)\nWriting library                  : XviD 1.2.0.dev47 (UTC 2006-11-01)\n\nAudio\nID                               : 1\nFormat                           : AC-3\nFormat/Info                      : Audio Coding 3\nMode extension                   : CM (complete main)\nCodec ID                         : 2000\nDuration                         : 1h 37mn\nBit rate mode                    : Constant\nBit rate                         : 448 Kbps\nChannel(s)                       : 6 channels\nChannel positions                : Front: L C R, Side: L R, LFE\nSampling rate                    : 48.0 KHz\nBit depth                        : 16 bits\nCompression mode                 : Lossy\nStream size                      : 311 MiB (15%)\nAlignment                        : Aligned on interleaves\nInterleave, duration             : 64 ms (1.53 video frames)\nInterleave, preload duration     : 192 ms\nLanguage                         : English\n\n\n\n\nSubtitles included               : Romanian, English\n\n\n\n\nImdb link                         &lt;a href=&quot; http://www.imdb.com/title/tt0825232/&quot; rel=&quot;nofollow&quot; target=&quot;_NEW&quot;&gt; http://www.imdb.com/title/tt0825232/&lt;/a&gt;\n\n\n\nPlease seed at least 1,5:1. This way this torrent has the chance to survive !\n\n\n\nThanks. ENJOY !!!","torrent":{"xt":"urn:btih:b9c9484aef94f5490ec13eab476e19b6ae873c8d","amp;dn":"The.Bucket.List.2007.720p.BRRip.XviD.AC3+-+CODY","amp;tr":["udp%3A%2F%2Ftracker.openbittorrent.com%3A80","udp%3A%2F%2Fopen.demonii.com%3A1337","udp%3A%2F%2Ftracker.coppersurfer.tk%3A6969","udp%3A%2F%2Fexodus.desync.com%3A6969"],"infoHash":"b9c9484aef94f5490ec13eab476e19b6ae873c8d","infoHashBuffer":{"type":"Buffer","data":[185,201,72,74,239,148,245,73,14,193,62,171,71,110,25,182,174,135,60,141]},"announce":[],"urlList":[]}}